<svg width="24" height="24" fill="none" xmlns="http://www.w3.org/2000/svg"><path d="M12 6.75a.75.75 0 00-.75.75V12l.001.02.002.045.004.035.006.036a.725.725 0 00.088.239.934.934 0 00.082.115.863.863 0 00.109.103l.028.021c.012.009.025.016.038.024l.017.011 3.897 2.25a.75.75 0 10.75-1.298l-3.522-2.034V7.5a.75.75 0 00-.75-.75z" fill="#fff"/><path d="M18.364 5.636a9.01 9.01 0 00-12.728 0L3.734 7.538v-1.94a.75.75 0 10-1.5 0V9.35c0 .024.002.048.004.072l.005.034.006.039c.002.013.006.025.01.038.002.01.004.022.008.033l.012.036.012.033.016.033.016.034.018.031.02.032.024.033.02.026a.753.753 0 00.104.105l.025.018.034.025.031.02.032.018c.01.006.022.01.033.016l.034.015c.01.005.02.008.032.012s.024.01.037.013l.032.008.039.01.037.005.036.006a.756.756 0 00.065.003h3.758a.75.75 0 100-1.5H4.795l1.902-1.901a7.5 7.5 0 110 10.606.751.751 0 00-1.061 1.061A9 9 0 1018.364 5.636z" fill="#fff"/></svg>