<svg width="90" height="31" fill="none" xmlns="http://www.w3.org/2000/svg"><path d="M32.782 22.118c-3.674 0-6.328-3.027-6.328-6.748 0-3.72 2.615-6.917 6.44-6.917 1.695 0 2.9.401 3.948 1.062v3.27h3.162V8.017l-.608-.48c-1.74-1.383-4.394-2.117-6.614-2.117-5.42 0-9.825 4.46-9.825 9.95 0 5.488 4.405 9.949 9.825 9.949 3.385 0 5.934-1.429 7.813-3.913l-2.51-1.943c-1.276 1.688-3.206 2.654-5.303 2.654zm53.51-.17l-.112-4.585V6.178h-6.59v3.201h3.261v7.584c0 3.269-2.47 5.578-4.957 5.578-2.487 0-3.786-1.744-3.786-5.014V6.177h-6.156V9.38h2.827v8.713c0 4.433 2.453 7.482 6.836 7.482 2.515 0 4.433-1.406 5.576-3.591h.05l.452 3.049h5.063v-3.09h-2.464v.007zM11.96 19.934h-.073L7.132 5.89h-5.85V9.09h3.29L10.238 25.1h3.011v-.005L19.154 9.09h3.073V5.89H16.74l-4.78 14.043zm31.132 5.2h3.25v-3.292h-3.25v3.292zM55.662 9.887h-.04l-.206-3.71h-5.81v2.92H52.7v12.846h-3.095v3.089h14.353v-3.033h-7.985v-7.752c.362-2.807 2.437-5.207 5.275-5.207h.05l-.056 2.869h3.162V6.115h-2.492c-2.867 0-4.991 1.57-6.251 3.772z" fill="#fff"/></svg>