<svg width="24" height="24" fill="none" xmlns="http://www.w3.org/2000/svg"><circle cx="12" cy="12" r="11" stroke="#fff" stroke-width="2"/><path d="M18.092 14.33c-.074-.124-.273-.199-.572-.348-.299-.148-1.766-.867-2.04-.966-.274-.1-.473-.15-.672.148-.2.298-.771.967-.945 1.165-.175.199-.349.224-.647.075-.299-.149-1.261-.463-2.401-1.475-.888-.788-1.487-1.761-1.662-2.059-.174-.297-.018-.458.131-.606.135-.133.299-.347.448-.52.15-.174.2-.298.299-.496.1-.199.05-.372-.025-.521-.075-.149-.672-1.611-.92-2.206-.243-.58-.49-.501-.672-.51C8.24 6 8.04 6 7.84 6a1.1 1.1 0 00-.796.372C6.771 6.669 6 7.388 6 8.85c0 1.462 1.07 2.875 1.22 3.074.148.198 2.105 3.2 5.1 4.487.712.306 1.268.489 1.702.626.715.226 1.366.194 1.88.117.574-.085 1.767-.718 2.016-1.412.249-.695.249-1.29.174-1.414z" fill="#fff"/></svg>