<svg width="64" height="64" fill="none" xmlns="http://www.w3.org/2000/svg"><path d="M33.103 47.683l12.609 7.989c1.611 1.02 3.612-.498 3.134-2.38l-3.643-14.33a2.19 2.19 0 01.71-2.219l11.306-9.41c1.486-1.237.72-3.703-1.19-3.827l-14.766-.958a2.104 2.104 0 01-1.811-1.338L33.944 7.342a2.08 2.08 0 00-3.889 0L24.55 21.21a2.105 2.105 0 01-1.813 1.338l-14.765.958c-1.91.124-2.676 2.59-1.19 3.826l11.306 9.411a2.19 2.19 0 01.71 2.22l-3.379 13.29c-.574 2.257 1.828 4.08 3.762 2.854l11.717-7.424a2.054 2.054 0 012.206 0v0z" stroke="url(#paint0_linear_2220_758)" stroke-width="2" stroke-linecap="round" stroke-linejoin="round"/><defs><linearGradient id="paint0_linear_2220_758" x1="32" y1="6" x2="32" y2="56" gradientUnits="userSpaceOnUse"><stop stop-color="#27CED7"/><stop offset="1" stop-color="#27CED7" stop-opacity="0"/></linearGradient></defs></svg>