<svg width="64" height="64" fill="none" xmlns="http://www.w3.org/2000/svg"><path d="M.063 63.938V.062h63.874v63.876H.063z" stroke="url(#paint0_linear_1696_371)" stroke-width=".125"/><path d="M54 12H10a2 2 0 00-2 2v30a2 2 0 002 2h44a2 2 0 002-2V14a2 2 0 00-2-2z" stroke="url(#paint1_linear_1696_371)" stroke-width="2" stroke-linecap="round" stroke-linejoin="round"/><path d="M40 46l8 10" stroke="url(#paint2_linear_1696_371)" stroke-width="2" stroke-linecap="round" stroke-linejoin="round"/><path d="M24 46l-8 10" stroke="url(#paint3_linear_1696_371)" stroke-width="2" stroke-linecap="round" stroke-linejoin="round"/><path d="M24 30v6" stroke="url(#paint4_linear_1696_371)" stroke-width="2" stroke-linecap="round" stroke-linejoin="round"/><path d="M32 26v10" stroke="url(#paint5_linear_1696_371)" stroke-width="2" stroke-linecap="round" stroke-linejoin="round"/><path d="M40 22v14" stroke="url(#paint6_linear_1696_371)" stroke-width="2" stroke-linecap="round" stroke-linejoin="round"/><path d="M32 12V6" stroke="url(#paint7_linear_1696_371)" stroke-width="2" stroke-linecap="round" stroke-linejoin="round"/><defs><linearGradient id="paint0_linear_1696_371" x1="32" y1="0" x2="32" y2="64" gradientUnits="userSpaceOnUse"><stop stop-color="#27CED7"/><stop offset="1" stop-color="#27CED7" stop-opacity="0"/></linearGradient><linearGradient id="paint1_linear_1696_371" x1="32" y1="12" x2="32" y2="46" gradientUnits="userSpaceOnUse"><stop stop-color="#27CED7"/><stop offset="1" stop-color="#27CED7" stop-opacity="0"/></linearGradient><linearGradient id="paint2_linear_1696_371" x1="44" y1="46" x2="44" y2="56" gradientUnits="userSpaceOnUse"><stop stop-color="#27CED7"/><stop offset="1" stop-color="#27CED7" stop-opacity="0"/></linearGradient><linearGradient id="paint3_linear_1696_371" x1="20" y1="46" x2="20" y2="56" gradientUnits="userSpaceOnUse"><stop stop-color="#27CED7"/><stop offset="1" stop-color="#27CED7" stop-opacity="0"/></linearGradient><linearGradient id="paint4_linear_1696_371" x1="24.5" y1="30" x2="24.5" y2="36" gradientUnits="userSpaceOnUse"><stop stop-color="#27CED7"/><stop offset="1" stop-color="#27CED7" stop-opacity="0"/></linearGradient><linearGradient id="paint5_linear_1696_371" x1="32.5" y1="26" x2="32.5" y2="36" gradientUnits="userSpaceOnUse"><stop stop-color="#27CED7"/><stop offset="1" stop-color="#27CED7" stop-opacity="0"/></linearGradient><linearGradient id="paint6_linear_1696_371" x1="40.5" y1="22" x2="40.5" y2="36" gradientUnits="userSpaceOnUse"><stop stop-color="#27CED7"/><stop offset="1" stop-color="#27CED7" stop-opacity="0"/></linearGradient><linearGradient id="paint7_linear_1696_371" x1="32.5" y1="6" x2="32.5" y2="12" gradientUnits="userSpaceOnUse"><stop stop-color="#27CED7"/><stop offset="1" stop-color="#27CED7" stop-opacity="0"/></linearGradient></defs></svg>