<svg width="19" height="20" fill="none" xmlns="http://www.w3.org/2000/svg"><path d="M8.972 1.383a.565.565 0 011.056 0l1.8 4.72a.565.565 0 00.488.363l4.873.348c.5.035.709.656.332.987l-3.79 3.334a.565.565 0 00-.176.556l1.197 5.008a.565.565 0 01-.861.603l-4.08-2.696a.565.565 0 00-.622 0l-4.08 2.696a.565.565 0 01-.86-.603l1.197-5.009a.565.565 0 00-.177-.555L1.48 7.801a.565.565 0 01.332-.987l4.873-.348a.565.565 0 00.487-.362l1.801-4.72z" fill="#D6D6D6"/><path d="M8.407 2.864c.224-.586 1.093-.426 1.093.201v11.031c0 .19-.095.367-.254.472L5.11 17.302a.565.565 0 01-.86-.603l1.196-5.009a.565.565 0 00-.176-.555L1.48 7.801a.565.565 0 01.332-.987l4.873-.348a.565.565 0 00.487-.362l1.236-3.24z" fill="#FFA030"/></svg>