<svg width="46" height="70" fill="none" xmlns="http://www.w3.org/2000/svg"><mask id="a" style="mask-type:alpha" maskUnits="userSpaceOnUse" x="4" y="0" width="42" height="62"><path fill="#D9D9D9" d="M4 0h42v62H4z"/></mask><g mask="url(#a)"><path d="M-479-35.913h468c8.56 0 15.5 6.94 15.5 15.5V4.34a8.5 8.5 0 004.45 7.473l36.19 19.61a.5.5 0 010 .879L8.95 51.91a8.5 8.5 0 00-4.45 7.473V203.46c0 8.561-6.94 15.5-15.5 15.5h-468c-8.56 0-15.5-6.939-15.5-15.5V-20.413c0-8.56 6.94-15.5 15.5-15.5z" stroke="#020528" stroke-opacity=".25"/></g></svg>