<svg width="27" height="22" fill="none" xmlns="http://www.w3.org/2000/svg"><path d="M9.816 20.62c-.777 0-.645-.294-.913-1.034L6.616 12.06l17.6-10.441" fill="#C8DAEA"/><path d="M9.816 20.619c.6 0 .865-.274 1.2-.6l3.2-3.112-3.991-2.407" fill="#A9C9DD"/><path d="M10.224 14.501l9.672 7.146c1.104.609 1.9.294 2.175-1.025L26.008 2.07C26.412.453 25.392-.28 24.337.2L1.219 9.114C-.36 9.747-.351 10.627.93 11.02l5.933 1.851 13.734-8.665c.649-.393 1.244-.181.755.252" fill="url(#paint0_linear_2176_1629)"/><defs><linearGradient id="paint0_linear_2176_1629" x1="11.212" y1="11.093" x2="13.776" y2="19.388" gradientUnits="userSpaceOnUse"><stop stop-color="#EFF7FC"/><stop offset="1" stop-color="#fff"/></linearGradient></defs></svg>