<svg width="24" height="24" fill="none" xmlns="http://www.w3.org/2000/svg"><path fill-rule="evenodd" clip-rule="evenodd" d="M12.05 23.794h-.005c-2 0-3.965-.5-5.71-1.448L0 24l1.695-6.163A11.828 11.828 0 01.1 11.892C.103 5.335 5.463 0 12.05 0a11.901 11.901 0 018.453 3.488A11.792 11.792 0 0124 11.9c-.003 6.556-5.361 11.89-11.95 11.893zm-5.422-3.6l.363.214a9.954 9.954 0 005.055 1.377h.004c5.474 0 9.93-4.434 9.932-9.884a9.8 9.8 0 00-2.906-6.993 9.888 9.888 0 00-7.022-2.9c-5.479 0-9.934 4.435-9.937 9.885 0 1.867.525 3.686 1.519 5.26l.236.374-1.003 3.648 3.759-.982zm11.034-5.732c.208.1.349.167.409.267.074.124.074.719-.174 1.413-.25.694-1.442 1.328-2.016 1.413-.514.077-1.165.109-1.88-.118-.434-.137-.99-.32-1.703-.626C9.5 15.61 7.608 12.91 7.25 12.398l-.052-.073-.003-.004c-.158-.21-1.217-1.615-1.217-3.07 0-1.37.676-2.087.987-2.417a7.58 7.58 0 00.058-.062A1.1 1.1 0 017.82 6.4c.199 0 .398.002.572.01l.067.001c.174-.001.39-.002.605.51l.33.796c.256.622.54 1.31.59 1.41.075.148.125.322.025.52l-.042.085c-.075.152-.13.264-.256.411-.05.058-.102.12-.153.183-.103.124-.206.249-.295.338-.15.148-.305.309-.131.606.174.298.773 1.27 1.66 2.059.955.847 1.784 1.205 2.205 1.386.082.036.148.064.197.088.299.15.473.124.647-.074.174-.198.746-.868.945-1.165.2-.297.399-.248.672-.149.274.1 1.742.818 2.04.967.059.03.113.055.164.08z" fill="#fff"/></svg>