<svg width="90" height="31" viewBox="0 0 90 31" fill="none" xmlns="http://www.w3.org/2000/svg">
<path d="M32.7825 22.118C29.1078 22.118 26.4535 19.0914 26.4535 15.3703C26.4535 11.6491 29.0687 8.45314 32.894 8.45314C34.5892 8.45314 35.7936 8.85405 36.8419 9.51471V12.7841H40.0037V8.01835L39.3959 7.53838C37.6561 6.15496 35.0018 5.4209 32.7825 5.4209C27.3624 5.4209 22.9572 9.88174 22.9572 15.3703C22.9572 20.8588 27.3624 25.3196 32.7825 25.3196C36.1672 25.3196 38.7156 23.891 40.5947 21.4065L38.0854 19.4641C36.8085 21.1524 34.8791 22.118 32.7825 22.118ZM86.2918 21.9486L86.1802 17.3635V6.17755H79.5892V9.37919H82.8512V16.9626C82.8512 20.232 80.381 22.5415 77.894 22.5415C75.407 22.5415 74.1077 20.7967 74.1077 17.5273V6.17755H67.9516V9.37919H70.7788V18.0919C70.7788 22.5245 73.2323 25.5737 77.6152 25.5737C80.1301 25.5737 82.0483 24.1677 83.1914 21.9825H83.2416L83.6933 25.0316H88.7564V21.9429H86.2918V21.9486ZM11.9609 19.9327H11.8884L7.13191 5.88957H1.28247V9.09121H4.57243L10.2379 25.0994H13.249V25.0938L19.1542 9.09121H22.2267V5.88957H16.7397L11.9609 19.9327ZM43.0929 25.1333H46.3438V21.8413H43.0929V25.1333ZM55.6617 9.88738H55.6226L55.4163 6.17755H49.6059V9.09685H52.7007V21.9429H49.6059V25.0316H63.9591V21.9994H55.9739V14.2466C56.3364 11.4402 58.4107 9.04039 61.249 9.04039H61.2992L61.2434 11.9089H64.4051V6.11543H61.9126C59.0464 6.11543 56.9219 7.6852 55.6617 9.88738Z" fill="white"/>
</svg>
