<svg width="24" height="24" viewBox="0 0 24 24" fill="none" xmlns="http://www.w3.org/2000/svg">
<circle cx="12" cy="12" r="11" stroke="white" stroke-width="2"/>
<path d="M18.0923 14.3295C18.0176 14.2055 17.8186 14.1312 17.52 13.9824C17.2215 13.8336 15.7535 13.1148 15.4797 13.0156C15.2061 12.9165 15.007 12.8669 14.8079 13.1643C14.6089 13.4618 14.0367 14.1312 13.8625 14.3295C13.6883 14.5277 13.5141 14.5526 13.2157 14.4038C12.9171 14.2551 11.955 13.9414 10.8145 12.9289C9.92685 12.141 9.32761 11.1679 9.15343 10.8704C8.97926 10.5729 9.13486 10.4122 9.28434 10.264C9.41868 10.1308 9.58295 9.91681 9.73223 9.74335C9.88151 9.56988 9.93127 9.44585 10.0308 9.24767C10.1303 9.04926 10.0806 8.87579 10.0059 8.72704C9.93127 8.57829 9.33414 7.11562 9.08532 6.52062C8.84293 5.94119 8.59679 6.01968 8.41352 6.01053C8.23955 6.00183 8.04028 6 7.84125 6C7.64221 6 7.31871 6.07437 7.04503 6.37187C6.77134 6.66937 6 7.38829 6 8.85085C6 10.3135 7.0699 11.7265 7.2192 11.9248C7.36848 12.1232 9.32464 15.1246 12.3199 16.4118C13.0323 16.718 13.5884 16.9008 14.0221 17.0377C14.7373 17.264 15.3883 17.232 15.9027 17.1555C16.4764 17.0702 17.6693 16.4367 17.9182 15.7426C18.1669 15.0483 18.1669 14.4534 18.0923 14.3295Z" fill="white"/>
</svg>
