<svg width="64" height="64" viewBox="0 0 64 64" fill="none" xmlns="http://www.w3.org/2000/svg">
<path d="M10 44V18C10 16.9391 10.4214 15.9217 11.1716 15.1716C11.9217 14.4214 12.9391 14 14 14H50C51.0609 14 52.0783 14.4214 52.8284 15.1716C53.5786 15.9217 54 16.9391 54 18V44" stroke="url(#paint0_linear_1696_1588)" stroke-width="2" stroke-linecap="round" stroke-linejoin="round"/>
<path d="M6 44H58V48C58 49.0609 57.5786 50.0783 56.8284 50.8284C56.0783 51.5786 55.0609 52 54 52H10C8.93913 52 7.92172 51.5786 7.17157 50.8284C6.42143 50.0783 6 49.0609 6 48V44Z" stroke="url(#paint1_linear_1696_1588)" stroke-width="2" stroke-linecap="round" stroke-linejoin="round"/>
<path d="M36 22H28" stroke="url(#paint2_linear_1696_1588)" stroke-width="2" stroke-linecap="round" stroke-linejoin="round"/>
<defs>
<linearGradient id="paint0_linear_1696_1588" x1="32" y1="14" x2="32" y2="44" gradientUnits="userSpaceOnUse">
<stop stop-color="#27CED7"/>
<stop offset="1" stop-color="#27CED7" stop-opacity="0"/>
</linearGradient>
<linearGradient id="paint1_linear_1696_1588" x1="32" y1="44" x2="32" y2="52" gradientUnits="userSpaceOnUse">
<stop stop-color="#27CED7"/>
<stop offset="1" stop-color="#27CED7" stop-opacity="0"/>
</linearGradient>
<linearGradient id="paint2_linear_1696_1588" x1="32" y1="22" x2="32" y2="23" gradientUnits="userSpaceOnUse">
<stop stop-color="#27CED7"/>
<stop offset="1" stop-color="#27CED7" stop-opacity="0"/>
</linearGradient>
</defs>
</svg>
