<svg width="64" height="64" viewBox="0 0 64 64" fill="none" xmlns="http://www.w3.org/2000/svg">
<path d="M10.5211 12H53.4789C53.8664 12 54.2455 12.1125 54.5702 12.324C54.8949 12.5354 55.1512 12.8366 55.3079 13.1909C55.4647 13.5452 55.5151 13.9375 55.4532 14.3199C55.3912 14.7024 55.2194 15.0586 54.9588 15.3453L38.5201 33.4279C38.1855 33.796 38 34.2757 38 34.7732V48.9296C38 49.2589 37.9187 49.5831 37.7634 49.8733C37.608 50.1636 37.3834 50.4111 37.1094 50.5937L29.1094 55.9271C28.8082 56.1279 28.4582 56.2432 28.0966 56.2606C27.735 56.2781 27.3755 56.1971 27.0563 56.0263C26.7371 55.8555 26.4703 55.6013 26.2843 55.2907C26.0983 54.9802 26 54.625 26 54.263V34.7732C26 34.2757 25.8146 33.796 25.4799 33.4279L9.04124 15.3453C8.7806 15.0586 8.60886 14.7024 8.54688 14.3199C8.48489 13.9375 8.53534 13.5452 8.69209 13.1909C8.84884 12.8366 9.10514 12.5354 9.42984 12.324C9.75454 12.1125 10.1337 12 10.5211 12V12Z" stroke="url(#paint0_linear_1696_367)" stroke-width="2" stroke-linecap="round" stroke-linejoin="round"/>
<defs>
<linearGradient id="paint0_linear_1696_367" x1="32" y1="12" x2="32" y2="56.263" gradientUnits="userSpaceOnUse">
<stop stop-color="#27CED7"/>
<stop offset="1" stop-color="#27CED7" stop-opacity="0"/>
</linearGradient>
</defs>
</svg>
