<svg width="64" height="64" viewBox="0 0 64 64" fill="none" xmlns="http://www.w3.org/2000/svg">
<path d="M56 14L32 36L8 14" stroke="url(#paint0_linear_1696_360)" stroke-width="2" stroke-linecap="round" stroke-linejoin="round"/>
<path d="M8 14H56V48C56 48.5304 55.7893 49.0391 55.4142 49.4142C55.0391 49.7893 54.5304 50 54 50H10C9.46957 50 8.96086 49.7893 8.58579 49.4142C8.21071 49.0391 8 48.5304 8 48V14Z" stroke="url(#paint1_linear_1696_360)" stroke-width="2" stroke-linecap="round" stroke-linejoin="round"/>
<path d="M27.6364 32L8.6167 49.4348" stroke="url(#paint2_linear_1696_360)" stroke-width="2" stroke-linecap="round" stroke-linejoin="round"/>
<path d="M55.3835 49.4348L36.3635 31.9999" stroke="url(#paint3_linear_1696_360)" stroke-width="2" stroke-linecap="round" stroke-linejoin="round"/>
<defs>
<linearGradient id="paint0_linear_1696_360" x1="32" y1="14" x2="32" y2="36" gradientUnits="userSpaceOnUse">
<stop stop-color="#27CED7"/>
<stop offset="1" stop-color="#27CED7" stop-opacity="0"/>
</linearGradient>
<linearGradient id="paint1_linear_1696_360" x1="32" y1="14" x2="32" y2="50" gradientUnits="userSpaceOnUse">
<stop stop-color="#27CED7"/>
<stop offset="1" stop-color="#27CED7" stop-opacity="0"/>
</linearGradient>
<linearGradient id="paint2_linear_1696_360" x1="18.1265" y1="32" x2="18.1265" y2="49.4348" gradientUnits="userSpaceOnUse">
<stop stop-color="#27CED7"/>
<stop offset="1" stop-color="#27CED7" stop-opacity="0"/>
</linearGradient>
<linearGradient id="paint3_linear_1696_360" x1="45.8735" y1="31.9999" x2="45.8735" y2="49.4348" gradientUnits="userSpaceOnUse">
<stop stop-color="#27CED7"/>
<stop offset="1" stop-color="#27CED7" stop-opacity="0"/>
</linearGradient>
</defs>
</svg>
