<svg width="19" height="20" viewBox="0 0 19 20" fill="none" xmlns="http://www.w3.org/2000/svg">
<path d="M7.97229 0.383276C8.15718 -0.101376 8.84282 -0.101376 9.02771 0.383276L10.8286 5.1039C10.9069 5.30911 11.097 5.45032 11.3161 5.46596L16.1887 5.81374C16.6887 5.84942 16.8979 6.47021 16.5215 6.80123L12.7308 10.1351C12.5737 10.2732 12.5058 10.487 12.5545 10.6905L13.7515 15.6992C13.8706 16.1974 13.3182 16.5841 12.8908 16.3017L8.8114 13.6058C8.62255 13.481 8.37744 13.481 8.1886 13.6058L4.10922 16.3017C3.68184 16.5841 3.12941 16.1974 3.24848 15.6992L4.44553 10.6905C4.49416 10.487 4.42631 10.2732 4.26919 10.1351L0.478512 6.80123C0.102138 6.47021 0.311351 5.84942 0.811307 5.81374L5.6839 5.46596C5.90297 5.45032 6.09312 5.30911 6.1714 5.1039L7.97229 0.383276Z" fill="#FFA030"/>
</svg>
