<svg width="46" height="70" viewBox="0 0 46 70" fill="none" xmlns="http://www.w3.org/2000/svg">
<mask id="mask0_2604_951" style="mask-type:alpha" maskUnits="userSpaceOnUse" x="4" y="0" width="42" height="62">
<rect x="4" width="42" height="62" fill="#D9D9D9"/>
</mask>
<g mask="url(#mask0_2604_951)">
<path d="M-479 -35.9127H-11C-2.43958 -35.9127 4.5 -28.9731 4.5 -20.4127V4.33905C4.5 7.45804 6.20822 10.3265 8.9505 11.8124L45.1392 31.4215C45.4882 31.6106 45.4882 32.1116 45.1392 32.3007L8.9505 51.9097C6.20822 53.3957 4.5 56.2641 4.5 59.3831V100.135V145.651V203.46C4.5 212.021 -2.43958 218.96 -11 218.96H-479C-487.56 218.96 -494.5 212.021 -494.5 203.46V-20.4127C-494.5 -28.9731 -487.56 -35.9127 -479 -35.9127Z" stroke="#020528" stroke-opacity="0.25"/>
</g>
</svg>
