<svg width="24" height="24" viewBox="0 0 24 24" fill="none" xmlns="http://www.w3.org/2000/svg">
<path fill-rule="evenodd" clip-rule="evenodd" d="M12.0502 23.7938H12.0453C10.0453 23.7931 8.08018 23.2937 6.33478 22.3462L0 24L1.69529 17.8374C0.649554 16.0338 0.099291 13.9879 0.100188 11.8919C0.102809 5.33474 5.4635 0 12.0501 0C15.2468 0.00137307 18.2472 1.23989 20.5033 3.48784C22.7594 5.73568 24.0013 8.72361 24 11.9013C23.9974 18.4569 18.6388 23.7911 12.0502 23.7938ZM6.62789 20.1934L6.99057 20.4076C8.51552 21.3082 10.2636 21.7847 12.0458 21.7854H12.0499C17.5242 21.7854 21.9798 17.3511 21.9819 11.9007C21.983 9.25948 20.9509 6.77605 19.0756 4.90763C17.2004 3.03922 14.7067 2.00976 12.0538 2.00884C6.57519 2.00884 2.11957 6.44273 2.11739 11.8927C2.11662 13.7605 2.64173 15.5794 3.63596 17.1532L3.87212 17.5272L2.86874 21.1748L6.62789 20.1934ZM17.6618 14.4616C17.87 14.5618 18.0106 14.6294 18.0707 14.7292C18.1453 14.853 18.1453 15.448 17.8966 16.1423C17.6477 16.8364 16.4548 17.4699 15.8811 17.5551C15.3667 17.6317 14.7158 17.6636 14.0005 17.4374C13.5668 17.3005 13.0107 17.1176 12.2983 16.8114C9.49914 15.6086 7.60747 12.9085 7.24995 12.3982C7.2249 12.3625 7.20739 12.3375 7.19761 12.3245L7.1952 12.3213C7.03718 12.1115 5.97841 10.7056 5.97841 9.25052C5.97841 7.88174 6.65401 7.1643 6.96499 6.83405C6.9863 6.81143 7.00589 6.79062 7.02344 6.77155C7.29712 6.47405 7.62062 6.39967 7.81966 6.39967C8.0187 6.39967 8.21797 6.4015 8.39193 6.4102C8.4134 6.41127 8.43573 6.41114 8.45881 6.41101C8.63281 6.40999 8.84974 6.40872 9.06373 6.9203C9.14606 7.11716 9.26652 7.40902 9.39356 7.71684C9.6505 8.33936 9.93438 9.02718 9.98433 9.12671C10.059 9.27547 10.1087 9.44893 10.0092 9.64734C9.99428 9.67709 9.98046 9.70517 9.96726 9.73199C9.8925 9.88387 9.83752 9.99559 9.71064 10.143C9.66075 10.201 9.60919 10.2635 9.55763 10.326C9.4549 10.4505 9.35219 10.575 9.26275 10.6636C9.11328 10.8118 8.95767 10.9726 9.13184 11.2701C9.30602 11.5676 9.90526 12.5406 10.7929 13.3286C11.7471 14.1756 12.5764 14.5336 12.9967 14.7151C13.0788 14.7505 13.1453 14.7792 13.1941 14.8035C13.4926 14.9523 13.6667 14.9274 13.8409 14.7292C14.0151 14.5308 14.5873 13.8614 14.7863 13.564C14.9854 13.2666 15.1845 13.3161 15.4581 13.4153C15.7319 13.5145 17.1999 14.2333 17.4985 14.382C17.5567 14.4111 17.6112 14.4373 17.6618 14.4616Z" fill="white"/>
</svg>
