<svg width="32" height="32" viewBox="0 0 32 32" fill="none" xmlns="http://www.w3.org/2000/svg">
<path d="M15.9998 13V4.5C15.9998 3.83696 15.7364 3.20107 15.2676 2.73223C14.7987 2.26339 14.1629 2 13.4998 2C12.8368 2 12.2009 2.26339 11.7321 2.73223C11.2632 3.20107 10.9998 3.83696 10.9998 4.5V19.6583L8.25888 14.9108C8.09488 14.6262 7.8764 14.3767 7.61592 14.1766C7.35544 13.9764 7.05808 13.8296 6.74083 13.7445C6.42358 13.6593 6.09266 13.6375 5.76698 13.6803C5.4413 13.7231 5.12725 13.8297 4.84277 13.9939C4.5583 14.1582 4.30898 14.3769 4.10907 14.6375C3.90916 14.8982 3.76257 15.1956 3.67769 15.513C3.5928 15.8303 3.57129 16.1612 3.61437 16.4869C3.65745 16.8125 3.76428 17.1265 3.92876 17.4108C7.99982 26 10.477 29 15.9998 29C17.313 29 18.6134 28.7413 19.8267 28.2388C21.0399 27.7362 22.1423 26.9997 23.0709 26.0711C23.9995 25.1425 24.7361 24.0401 25.2386 22.8268C25.7412 21.6136 25.9998 20.3132 25.9998 19V14C25.9998 13.337 25.7364 12.7011 25.2676 12.2322C24.7987 11.7634 24.1629 11.5 23.4998 11.5C22.8368 11.5 22.2009 11.7634 21.7321 12.2322C21.2632 12.7011 20.9998 13.337 20.9998 14" stroke="#020528" stroke-width="2" stroke-linecap="round" stroke-linejoin="round"/>
<path d="M21 14V12.5C21 11.837 20.7366 11.2011 20.2678 10.7322C19.7989 10.2634 19.163 10 18.5 10C17.837 10 17.2011 10.2634 16.7322 10.7322C16.2634 11.2011 16 11.837 16 12.5V13" stroke="#020528" stroke-width="2" stroke-linecap="round" stroke-linejoin="round"/>
</svg>
