<svg width="24" height="24" viewBox="0 0 24 24" fill="none" xmlns="http://www.w3.org/2000/svg">
<path d="M11.9995 1.49951C9.81227 1.50211 7.71536 2.37213 6.16875 3.91875C4.62213 5.46536 3.75211 7.56227 3.74951 9.74951C3.74951 16.8086 11.2495 22.1406 11.5688 22.364C11.6951 22.4522 11.8455 22.4995 11.9995 22.4995C12.1536 22.4995 12.3039 22.4522 12.4302 22.364C12.7495 22.1406 20.2495 16.8086 20.2495 9.74951C20.2469 7.56227 19.3769 5.46536 17.8303 3.91875C16.2837 2.37213 14.1868 1.50211 11.9995 1.49951ZM12.0001 6.74978C12.5934 6.74978 13.1734 6.92573 13.6668 7.25537C14.1601 7.58502 14.5446 8.05355 14.7717 8.60173C14.9988 9.14991 15.0582 9.75311 14.9424 10.3351C14.8267 10.917 14.5409 11.4515 14.1214 11.8711C13.7018 12.2907 13.1673 12.5764 12.5853 12.6921C12.0034 12.8079 11.4002 12.7485 10.852 12.5214C10.3038 12.2944 9.8353 11.9098 9.50565 11.4165C9.17601 10.9231 9.00006 10.3431 9.00006 9.74978C9.00005 9.35581 9.07764 8.9657 9.2284 8.60172C9.37916 8.23774 9.60014 7.90702 9.87872 7.62844C10.1573 7.34986 10.488 7.12888 10.852 6.97812C11.216 6.82736 11.6061 6.74977 12.0001 6.74978Z" fill="white"/>
</svg>
