<svg width="26" height="26" viewBox="0 0 26 26" fill="none" xmlns="http://www.w3.org/2000/svg">
<path d="M13 0C10.4288 0 7.91543 0.762437 5.77759 2.1909C3.63975 3.61935 1.97351 5.64968 0.989572 8.02512C0.0056327 10.4006 -0.251811 13.0144 0.249797 15.5362C0.751405 18.0579 1.98954 20.3743 3.80762 22.1924C5.6257 24.0105 7.94208 25.2486 10.4638 25.7502C12.9856 26.2518 15.5995 25.9944 17.9749 25.0104C20.3503 24.0265 22.3807 22.3603 23.8091 20.2224C25.2376 18.0846 26 15.5712 26 13C25.996 9.55341 24.6251 6.24912 22.188 3.81201C19.7509 1.3749 16.4466 0.00398351 13 0ZM12.9999 6C13.2966 6 13.5866 6.08797 13.8332 6.2528C14.0799 6.41762 14.2722 6.65189 14.3857 6.92597C14.4992 7.20006 14.5289 7.50166 14.4711 7.79264C14.4132 8.08361 14.2703 8.35088 14.0605 8.56066C13.8508 8.77044 13.5835 8.9133 13.2925 8.97118C13.0015 9.02906 12.6999 8.99935 12.4259 8.88582C12.1518 8.77229 11.9175 8.58003 11.7527 8.33335C11.5879 8.08668 11.4999 7.79667 11.4999 7.5C11.4999 7.30302 11.5387 7.10796 11.6141 6.92597C11.6894 6.74399 11.7999 6.57863 11.9392 6.43934C12.0785 6.30005 12.2439 6.18956 12.4259 6.11418C12.6078 6.0388 12.8029 6 12.9999 6H12.9999ZM14 20H13C12.8687 20.0001 12.7386 19.9743 12.6172 19.924C12.4959 19.8738 12.3856 19.8001 12.2927 19.7073C12.1999 19.6144 12.1262 19.5041 12.076 19.3828C12.0257 19.2614 11.9999 19.1313 12 19V13C11.7348 13 11.4804 12.8946 11.2929 12.7071C11.1054 12.5196 11 12.2652 11 12C11 11.7348 11.1054 11.4804 11.2929 11.2929C11.4804 11.1054 11.7348 11 12 11H13C13.1313 10.9999 13.2614 11.0257 13.3828 11.076C13.5041 11.1262 13.6144 11.1999 13.7073 11.2927C13.8002 11.3856 13.8738 11.4959 13.924 11.6172C13.9743 11.7386 14.0001 11.8687 14 12V18C14.2652 18 14.5196 18.1054 14.7071 18.2929C14.8946 18.4804 15 18.7348 15 19C15 19.2652 14.8946 19.5196 14.7071 19.7071C14.5196 19.8946 14.2652 20 14 20Z" fill="#EE1A24"/>
</svg>
