<svg width="48" height="48" viewBox="0 0 48 48" fill="none" xmlns="http://www.w3.org/2000/svg">
<path d="M0 24C0 10.7452 10.7452 0 24 0C37.2548 0 48 10.7452 48 24C48 37.2548 37.2548 48 24 48C10.7452 48 0 37.2548 0 24Z" fill="#4C6C91"/>
<path d="M25.2554 31.8757C25.2554 31.8757 25.7174 31.8253 25.9541 31.5758C26.1707 31.3472 26.1632 30.9158 26.1632 30.9158C26.1632 30.9158 26.1344 28.9014 27.0872 28.6039C28.0263 28.3114 29.2321 30.552 30.5117 31.4136C31.4783 32.065 32.2121 31.9224 32.2121 31.9224L35.6315 31.8757C35.6315 31.8757 37.4195 31.7675 36.5719 30.3873C36.5017 30.2742 36.0773 29.366 34.0301 27.5003C31.8853 25.5473 32.1733 25.8632 34.7551 22.4845C36.3277 20.4271 36.9563 19.171 36.7597 18.6339C36.5731 18.1201 35.4162 18.2565 35.4162 18.2565L31.5672 18.2799C31.5672 18.2799 31.2818 18.2418 31.0702 18.3659C30.8636 18.4876 30.7296 18.7715 30.7296 18.7715C30.7296 18.7715 30.1211 20.3631 29.3085 21.7176C27.5943 24.5739 26.9094 24.7251 26.629 24.5481C25.9766 24.1339 26.1394 22.8864 26.1394 22.0002C26.1394 19.2312 26.5676 18.0771 25.3067 17.7784C24.8885 17.6789 24.5805 17.6137 23.51 17.6027C22.1364 17.5892 20.9745 17.6076 20.3159 17.9235C19.8777 18.1336 19.5396 18.6031 19.7462 18.6302C20.0004 18.6634 20.5763 18.7826 20.8818 19.1906C21.2762 19.7179 21.2625 20.9002 21.2625 20.9002C21.2625 20.9002 21.4891 24.1597 20.7328 24.564C20.2145 24.8418 19.5033 24.2752 17.9745 21.6831C17.1919 20.3558 16.6009 18.8883 16.6009 18.8883C16.6009 18.8883 16.487 18.6142 16.2829 18.4667C16.0362 18.2885 15.6919 18.2332 15.6919 18.2332L12.0345 18.2565C12.0345 18.2565 11.4849 18.2713 11.2833 18.506C11.1042 18.7137 11.2695 19.1451 11.2695 19.1451C11.2695 19.1451 14.133 25.7218 17.376 29.0366C20.3497 32.0748 23.7254 31.8757 23.7254 31.8757H25.2554Z" fill="white"/>
</svg>
