<svg width="32" height="32" fill="none" xmlns="http://www.w3.org/2000/svg"><path d="M31.797 15.377c-.286-.39-7.098-9.575-15.797-9.575-8.7 0-15.511 9.184-15.797 9.575a1.056 1.056 0 000 1.245C.49 17.013 7.3 26.197 16 26.197s15.51-9.184 15.797-9.575a1.055 1.055 0 000-1.245zM16 24.087c-6.408 0-11.958-6.095-13.601-8.088 1.64-1.995 7.179-8.087 13.6-8.087 6.409 0 11.958 6.094 13.602 8.088-1.64 1.995-7.18 8.087-13.601 8.087z" fill="#EE1A24"/><path d="M16 9.67c-3.49 0-6.33 2.84-6.33 6.33s2.84 6.33 6.33 6.33 6.33-2.84 6.33-6.33S19.49 9.67 16 9.67zm0 10.55A4.225 4.225 0 0111.78 16 4.224 4.224 0 0116 11.78 4.224 4.224 0 0120.22 16 4.225 4.225 0 0116 20.22z" fill="#EE1A24"/></svg>