<svg width="32" height="32" fill="none" xmlns="http://www.w3.org/2000/svg"><path d="M16 32c8.837 0 16-7.163 16-16S24.837 0 16 0 0 7.163 0 16s7.163 16 16 16z" fill="#27CED7"/><path fill-rule="evenodd" clip-rule="evenodd" d="M8.533 11.45s6.44 3.652 7.69 3.652c1.31 0 7.68-3.582 7.68-3.582l.01-.64a1.28 1.28 0 00-1.282-1.28H9.815a1.28 1.28 0 00-1.282 1.28v.57zm15.37 1.99s-6.31 3.422-7.68 3.422c-1.25 0-7.68-3.422-7.68-3.422l-.01 7.68c0 .707.575 1.28 1.282 1.28H22.63a1.28 1.28 0 001.282-1.28l-.01-7.68z" fill="#fff"/></svg>