<svg width="48" height="48" fill="none" xmlns="http://www.w3.org/2000/svg"><path d="M0 24C0 10.745 10.745 0 24 0s24 10.745 24 24-10.745 24-24 24S0 37.255 0 24z" fill="#4C6C91"/><path d="M25.255 31.876s.462-.05.7-.3c.216-.229.208-.66.208-.66s-.029-2.015.924-2.312c.94-.293 2.145 1.948 3.425 2.81.966.651 1.7.508 1.7.508l3.42-.046s1.788-.109.94-1.489c-.07-.113-.495-1.021-2.542-2.887-2.145-1.953-1.857-1.637.725-5.015 1.573-2.058 2.201-3.314 2.005-3.851-.187-.514-1.344-.378-1.344-.378l-3.849.024s-.285-.038-.497.086c-.206.122-.34.405-.34.405s-.609 1.592-1.422 2.947c-1.714 2.856-2.399 3.007-2.679 2.83-.652-.414-.49-1.662-.49-2.548 0-2.769.429-3.923-.832-4.222-.418-.1-.726-.164-1.797-.175-1.374-.014-2.536.005-3.194.32-.438.21-.776.68-.57.707.254.033.83.153 1.136.56.394.528.38 1.71.38 1.71s.227 3.26-.53 3.664c-.517.278-1.229-.289-2.758-2.88-.782-1.328-1.373-2.796-1.373-2.796s-.114-.274-.318-.421c-.247-.178-.591-.234-.591-.234l-3.658.023s-.55.015-.75.25c-.18.208-.014.64-.014.64s2.863 6.576 6.106 9.89c2.974 3.039 6.35 2.84 6.35 2.84h1.53z" fill="#fff"/></svg>